<svg width="20" height="19" viewBox="0 0 22 21" fill="none" xmlns="http://www.w3.org/2000/svg">
  <path d="M10.084 3.16675H3.66732C3.18109 3.16675 2.71477 3.3599 2.37096 3.70372C2.02714 4.04754 1.83398 4.51385 1.83398 5.00008V17.8334C1.83398 18.3196 2.02714 18.786 2.37096 19.1298C2.71477 19.4736 3.18109 19.6667 3.66732 19.6667H16.5007C16.9869 19.6667 17.4532 19.4736 17.797 19.1298C18.1408 18.786 18.334 18.3196 18.334 17.8334V11.4167" stroke="#646464" stroke-opacity="0.8" stroke-width="2.33333" stroke-linecap="round" stroke-linejoin="round"/>
  <path d="M16.959 1.79171C17.3237 1.42704 17.8183 1.22217 18.334 1.22217C18.8497 1.22217 19.3443 1.42704 19.709 1.79171C20.0737 2.15638 20.2785 2.65099 20.2785 3.16671C20.2785 3.68244 20.0737 4.17704 19.709 4.54171L11.0007 13.25L7.33398 14.1667L8.25065 10.5L16.959 1.79171Z" stroke="#646464" stroke-opacity="0.8" stroke-width="2.33333" stroke-linecap="round" stroke-linejoin="round"/>
</svg>